<mxfile host="app.diagrams.net" modified="2021-11-10T12:40:52.998Z" agent="5.0 (Windows NT 10.0; Win64; x64) AppleWebKit/537.36 (KHTML, like Gecko) Chrome/95.0.4638.69 Safari/537.36" etag="uflIdcyUDo-_Ca7Qfg9z" version="15.7.2" type="github">
  <diagram id="kiQjJAG6pEVS9-odId9V" name="Page-1">
    <mxGraphModel dx="1102" dy="614" grid="1" gridSize="10" guides="1" tooltips="1" connect="1" arrows="1" fold="1" page="1" pageScale="1" pageWidth="827" pageHeight="1169" math="0" shadow="0">
      <root>
        <mxCell id="0" />
        <mxCell id="1" parent="0" />
        <mxCell id="bCjSRFNpNeuKd274y7FQ-1" value="cliente" style="shape=umlActor;verticalLabelPosition=bottom;verticalAlign=top;html=1;outlineConnect=0;" parent="1" vertex="1">
          <mxGeometry x="90" y="120" width="40" height="80" as="geometry" />
        </mxCell>
        <mxCell id="HUb8j7WPSRjzAgTNnOj2-21" value="&lt;font style=&quot;vertical-align: inherit&quot;&gt;&lt;font style=&quot;vertical-align: inherit&quot;&gt;Include&lt;/font&gt;&lt;/font&gt;" style="edgeStyle=orthogonalEdgeStyle;rounded=0;orthogonalLoop=1;jettySize=auto;html=1;entryX=0;entryY=0.5;entryDx=0;entryDy=0;" edge="1" parent="1" source="bCjSRFNpNeuKd274y7FQ-2" target="HUb8j7WPSRjzAgTNnOj2-12">
          <mxGeometry relative="1" as="geometry" />
        </mxCell>
        <mxCell id="bCjSRFNpNeuKd274y7FQ-2" value="solicitar atendimento" style="ellipse;whiteSpace=wrap;html=1;" parent="1" vertex="1">
          <mxGeometry x="170" y="120" width="120" height="80" as="geometry" />
        </mxCell>
        <mxCell id="bCjSRFNpNeuKd274y7FQ-3" value="" style="endArrow=none;html=1;rounded=0;entryX=0;entryY=0.5;entryDx=0;entryDy=0;" parent="1" source="bCjSRFNpNeuKd274y7FQ-1" target="bCjSRFNpNeuKd274y7FQ-2" edge="1">
          <mxGeometry width="50" height="50" relative="1" as="geometry">
            <mxPoint x="140" y="195" as="sourcePoint" />
            <mxPoint x="190" y="145" as="targetPoint" />
          </mxGeometry>
        </mxCell>
        <mxCell id="bCjSRFNpNeuKd274y7FQ-4" value="secretaria" style="shape=umlActor;verticalLabelPosition=bottom;verticalAlign=top;html=1;outlineConnect=0;" parent="1" vertex="1">
          <mxGeometry x="580" y="110" width="40" height="80" as="geometry" />
        </mxCell>
        <mxCell id="HUb8j7WPSRjzAgTNnOj2-2" value="&lt;font style=&quot;vertical-align: inherit&quot;&gt;&lt;font style=&quot;vertical-align: inherit&quot;&gt;solicitar dados de problemas do veiculo&lt;/font&gt;&lt;/font&gt;" style="ellipse;whiteSpace=wrap;html=1;" vertex="1" parent="1">
          <mxGeometry x="170" y="250" width="120" height="80" as="geometry" />
        </mxCell>
        <mxCell id="HUb8j7WPSRjzAgTNnOj2-3" value="" style="endArrow=none;html=1;rounded=0;entryX=0;entryY=0.5;entryDx=0;entryDy=0;exitX=1;exitY=1;exitDx=0;exitDy=0;exitPerimeter=0;" edge="1" parent="1" source="bCjSRFNpNeuKd274y7FQ-1" target="HUb8j7WPSRjzAgTNnOj2-2">
          <mxGeometry width="50" height="50" relative="1" as="geometry">
            <mxPoint x="320" y="170" as="sourcePoint" />
            <mxPoint x="370" y="120" as="targetPoint" />
          </mxGeometry>
        </mxCell>
        <mxCell id="HUb8j7WPSRjzAgTNnOj2-4" value="" style="endArrow=none;html=1;rounded=0;exitX=1;exitY=0.5;exitDx=0;exitDy=0;" edge="1" parent="1" source="HUb8j7WPSRjzAgTNnOj2-2" target="bCjSRFNpNeuKd274y7FQ-4">
          <mxGeometry width="50" height="50" relative="1" as="geometry">
            <mxPoint x="510" y="200" as="sourcePoint" />
            <mxPoint x="560" y="150" as="targetPoint" />
          </mxGeometry>
        </mxCell>
        <mxCell id="HUb8j7WPSRjzAgTNnOj2-12" value="&lt;font style=&quot;vertical-align: inherit&quot;&gt;&lt;font style=&quot;vertical-align: inherit&quot;&gt;solicitar dados pessoais é do carro&lt;/font&gt;&lt;/font&gt;" style="ellipse;whiteSpace=wrap;html=1;" vertex="1" parent="1">
          <mxGeometry x="350" y="130" width="90" height="60" as="geometry" />
        </mxCell>
        <mxCell id="HUb8j7WPSRjzAgTNnOj2-14" value="" style="endArrow=none;html=1;rounded=0;exitX=1;exitY=0.5;exitDx=0;exitDy=0;" edge="1" parent="1" source="HUb8j7WPSRjzAgTNnOj2-12" target="bCjSRFNpNeuKd274y7FQ-4">
          <mxGeometry width="50" height="50" relative="1" as="geometry">
            <mxPoint x="460" y="190" as="sourcePoint" />
            <mxPoint x="510" y="140" as="targetPoint" />
          </mxGeometry>
        </mxCell>
        <mxCell id="HUb8j7WPSRjzAgTNnOj2-19" value="&lt;font style=&quot;vertical-align: inherit&quot;&gt;&lt;font style=&quot;vertical-align: inherit&quot;&gt;Include&lt;/font&gt;&lt;/font&gt;" style="edgeStyle=orthogonalEdgeStyle;rounded=0;orthogonalLoop=1;jettySize=auto;html=1;entryX=1;entryY=0.4;entryDx=0;entryDy=0;entryPerimeter=0;" edge="1" parent="1" source="HUb8j7WPSRjzAgTNnOj2-16" target="HUb8j7WPSRjzAgTNnOj2-18">
          <mxGeometry relative="1" as="geometry" />
        </mxCell>
        <mxCell id="HUb8j7WPSRjzAgTNnOj2-16" value="&lt;font style=&quot;vertical-align: inherit&quot;&gt;&lt;font style=&quot;vertical-align: inherit&quot;&gt;verificar pagamento da franquia&lt;/font&gt;&lt;/font&gt;" style="ellipse;whiteSpace=wrap;html=1;" vertex="1" parent="1">
          <mxGeometry x="540" y="320" width="120" height="80" as="geometry" />
        </mxCell>
        <mxCell id="HUb8j7WPSRjzAgTNnOj2-17" value="" style="endArrow=none;html=1;rounded=0;exitX=0.5;exitY=0;exitDx=0;exitDy=0;" edge="1" parent="1" source="HUb8j7WPSRjzAgTNnOj2-16" target="bCjSRFNpNeuKd274y7FQ-4">
          <mxGeometry width="50" height="50" relative="1" as="geometry">
            <mxPoint x="560" y="290" as="sourcePoint" />
            <mxPoint x="610" y="240" as="targetPoint" />
          </mxGeometry>
        </mxCell>
        <mxCell id="HUb8j7WPSRjzAgTNnOj2-18" value="&lt;font style=&quot;vertical-align: inherit&quot;&gt;&lt;font style=&quot;vertical-align: inherit&quot;&gt;&lt;font style=&quot;vertical-align: inherit&quot;&gt;&lt;font style=&quot;vertical-align: inherit&quot;&gt;Liberar franquia para&amp;nbsp; &lt;/font&gt;&lt;/font&gt;&lt;/font&gt;&lt;/font&gt;&lt;span style=&quot;font-family: &amp;#34;calibri&amp;#34; , &amp;#34;calibri_embeddedfont&amp;#34; , &amp;#34;calibri_msfontservice&amp;#34; , sans-serif ; font-size: 14.6667px ; text-align: left ; background-color: rgb(255 , 255 , 255)&quot;&gt;&lt;font style=&quot;vertical-align: inherit&quot;&gt;&lt;font style=&quot;vertical-align: inherit&quot;&gt;&lt;font style=&quot;vertical-align: inherit&quot;&gt;&lt;font style=&quot;vertical-align: inherit&quot;&gt;&amp;nbsp;conserto do veículo&lt;/font&gt;&lt;/font&gt;&lt;/font&gt;&lt;/font&gt;&lt;/span&gt;" style="ellipse;whiteSpace=wrap;html=1;" vertex="1" parent="1">
          <mxGeometry x="340" y="290" width="120" height="100" as="geometry" />
        </mxCell>
        <mxCell id="HUb8j7WPSRjzAgTNnOj2-20" value="" style="endArrow=none;html=1;rounded=0;entryX=0.025;entryY=0.24;entryDx=0;entryDy=0;entryPerimeter=0;" edge="1" parent="1" source="bCjSRFNpNeuKd274y7FQ-1" target="HUb8j7WPSRjzAgTNnOj2-18">
          <mxGeometry width="50" height="50" relative="1" as="geometry">
            <mxPoint x="170" y="270" as="sourcePoint" />
            <mxPoint x="220" y="220" as="targetPoint" />
          </mxGeometry>
        </mxCell>
        <mxCell id="HUb8j7WPSRjzAgTNnOj2-22" value="&lt;font style=&quot;vertical-align: inherit&quot;&gt;&lt;font style=&quot;vertical-align: inherit&quot;&gt;emitir pagamento&lt;/font&gt;&lt;/font&gt;" style="ellipse;whiteSpace=wrap;html=1;" vertex="1" parent="1">
          <mxGeometry x="50" y="370" width="120" height="80" as="geometry" />
        </mxCell>
        <mxCell id="HUb8j7WPSRjzAgTNnOj2-23" value="" style="endArrow=none;html=1;rounded=0;exitX=0.5;exitY=0;exitDx=0;exitDy=0;" edge="1" parent="1" source="HUb8j7WPSRjzAgTNnOj2-22" target="bCjSRFNpNeuKd274y7FQ-1">
          <mxGeometry width="50" height="50" relative="1" as="geometry">
            <mxPoint x="80" y="310" as="sourcePoint" />
            <mxPoint x="130" y="260" as="targetPoint" />
          </mxGeometry>
        </mxCell>
        <mxCell id="HUb8j7WPSRjzAgTNnOj2-25" value="&lt;font style=&quot;vertical-align: inherit&quot;&gt;&lt;font style=&quot;vertical-align: inherit&quot;&gt;Include&lt;/font&gt;&lt;/font&gt;" style="endArrow=classic;html=1;rounded=0;" edge="1" parent="1" source="HUb8j7WPSRjzAgTNnOj2-16">
          <mxGeometry width="50" height="50" relative="1" as="geometry">
            <mxPoint x="220" y="440" as="sourcePoint" />
            <mxPoint x="180" y="410" as="targetPoint" />
          </mxGeometry>
        </mxCell>
      </root>
    </mxGraphModel>
  </diagram>
</mxfile>
